<?xml version="1.0" encoding="utf-8"?>
<!-- Generator: Adobe Illustrator 25.4.1, SVG Export Plug-In . SVG Version: 6.00 Build 0)  -->
<svg version="1.1" id="Layer_1" xmlns="http://www.w3.org/2000/svg" xmlns:xlink="http://www.w3.org/1999/xlink" x="0px" y="0px"
	 viewBox="0 0 464 324" style="enable-background:new 0 0 464 324;" xml:space="preserve">
<style type="text/css">
	.st0{fill:#FFFFFF;}
	.st1{fill:#EBB1B3;}
	.st2{fill:#EC1E26;}
</style>
<path class="st0" d="M350.5,293c6.2-0.4,13-0.9,19.7,0.6c1.3,0.3,2.5,0.7,3.8,1.2c0.7,0.3,1.3,0.7,1.4,1.6c0,1-0.6,1.5-1.4,1.9
	c-1,0.5-2.2,0.7-3.4,0.7c-15.3,0.4-30.6,1-45.8,3.1c-8.9,1.2-17.8,2.3-26.6,4.4c-3.9,1-7.6,2.3-10.7,5.1c-2.1,1.8-4.9,1.5-6.6-0.5
	c-1.6-1.8-1.4-4.2,0.4-6.3c1.6-1.8,3.7-2.5,5.8-3.2c8.1-2.4,16.4-3.6,24.7-5C324.5,294.6,337.2,293.2,350.5,293z"/>
<path class="st0" d="M64.2,279.8c-2.5,3.2-4.7,6.2-5.7,9.8c-0.4,1.5-1,2.9-2.6,2.9c-1.8,0-2.1-1.7-2.2-3.1
	c-0.3-6.6,1.3-12.9,3.1-19.1c0.3-1.2,1.2-2.2,2.6-1.6c1.4,0.6,1.8,1.7,1.1,3.3c-1.5,3.4-2.4,7.1-2.6,10.9c3.1-4,6.3-7.9,7.8-12.8
	c0.2-0.8,0.2-1.8,1.2-1.9c0.9-0.1,1.6,0.4,2.2,1c0.7,0.8,0.2,1.5-0.3,2.2c-1,1.4-1,3.1-1.2,4.8c-0.6,3.6-0.5,7.3-0.6,11.1
	c1.2-0.5,2-1.3,2.6-2.2c3.2-4.7,6.5-9.5,6.1-15.7c-0.1-0.9,0-1.8,1.1-1.9c1.2-0.1,2,0.8,2.4,1.8c0.3,1,0.1,2.1-0.2,3.2
	c-1.8,6.4-5.1,12.1-8.9,17.4c-0.5,0.7-1.1,1.3-1.8,1.7c-1.1,0.7-2.4,1.4-3.7,0.7c-1.3-0.7-0.8-2.1-0.8-3.2
	C63.9,286.3,64.5,283.3,64.2,279.8z"/>
<path class="st0" d="M169.2,283.7c0.9-4.1,1.2-8,1.6-11.9c0.1-0.8,0.1-1.7,0.3-2.5c0.3-1.5,0.5-3.3,2.6-2.8c2.1,0.4,1.8,2.2,1.5,3.7
	c-0.9,5-1.7,10-3,14.9c-1.5,5.6-4.5,10.3-9.6,13.5c-4.7,2.9-10.7,0.8-12-4.1c-0.1-0.4-0.3-0.8,0.4-1.2c0.6,0.5,1.2,1,1.8,1.5
	c3.8,3.1,7.4,2.8,10.7-0.8c0.3-0.4,0.6-0.8,0.9-1.2c1.6-2.1,2.6-3.8,0.9-6.7c-2.7-4.6-4.5-9.8-6.7-14.7c-0.2-0.4-0.3-0.8-0.4-1.2
	c-0.6-1.6-0.3-3.1,1.5-3.6s2.7,0.9,2.9,2.4c0.5,4.4,3,7.9,4.6,11.8C167.5,281.7,168,282.8,169.2,283.7z"/>
<path class="st0" d="M415.9,265.3c1.8-0.2,3.3-1.2,4.9-1.8c1.2-0.5,2.3-1,3.6-1.1c2.7-0.1,3.6,1.4,2.5,3.9c-2.2,4.8-3.7,9.8-4.2,15
	c-0.1,1,0,2,0.1,3s0.2,1.9-1,2.1s-2.2-0.2-2.6-1.4c-0.6-2-0.5-4-0.2-5.9c0.6-3.5,1.4-7,2.8-10.3c0.3-0.7,1-1.6,0.2-2.3
	c-0.7-0.6-1.5,0.3-2.2,0.6c-7.6,2.8-9.1,9.4-10,16.4c-0.1,0.9,0.2,1.9-0.7,2.5c-1.1,0.8-2.3,0.9-3.5,0.2c-1.3-0.8-0.5-1.7-0.2-2.8
	c1.4-4.3,2.5-8.6,3.8-12.9c0.6-1.9,1.3-3.8,2-5.6c0.5-1.3,1.1-2.7,2.9-2.5C416,262.6,415.6,264.2,415.9,265.3z"/>
<path class="st0" d="M350.2,267.6c2.1-1,3.8-1.8,5.4-2.6c1.1-0.6,2.4-0.9,3.6-0.9c2.6,0,3.6,1.5,2.6,3.9c-1.6,4-3.1,8-4.8,12
	c-0.7,1.7-1.1,3.2-0.5,5.1c0.5,1.4,0.2,2.8-1.5,3.1c-2,0.3-2.7-1-2.7-2.7c0-2.3,0.9-4.4,1.7-6.5c1.2-3.2,2.5-6.3,3.6-9.5
	c0.2-0.5,0.7-1.1,0.3-1.6c-0.6-0.7-1.3,0-1.8,0.2c-6.6,2-10,6.7-11.3,13.2c-0.3,1.7-0.7,3.4-1.1,5.1c-0.3,1.3-1.1,2.4-2.7,2
	c-1.7-0.4-1.5-1.9-1.1-3.1c1.6-4.7,3.4-9.4,5-14.1c0.9-2.4,1.6-4.9,2.4-7.3c0.5-1.4,1.2-2.7,3.1-2c1.8,0.7,1.3,2,0.7,3.3
	C350.9,265.8,350.6,266.5,350.2,267.6z"/>
<path class="st0" d="M84.5,274.1c2.3-1.4,4.2-3.1,6.5-4.2c0.9-0.4,1.8-0.9,2.8-0.9c2.8-0.2,4,1.1,3.3,3.7c-0.7,2.7-1.5,5.4-2.4,8.1
	c-1.1,3.6-1.9,7.2-1.9,11c0,1.2-0.1,2.7-1.8,2.7c-1.8,0-2.7-1.3-2.6-3c0.1-1.5,0.7-3.1,1.1-4.6c1.3-4.8,2.7-9.6,4-14.5
	c-6.6,2.7-13.1,7.8-12.8,15.5c0,1-0.1,2-0.4,3c-0.3,1.1-1.2,1.9-2.5,1.6s-1.8-1.2-1.4-2.5c1.7-6.4,3.4-12.9,5.7-19.1
	c0.4-1.1,1-2.4,2.5-1.6c1.3,0.6,1.3,1.8,0.5,3C84.8,272.7,84.3,273.2,84.5,274.1z"/>
<path class="st0" d="M206.2,283.9c-2,1.5-3.5,2.9-5.4,3.8c-3.8,1.8-6.9-0.1-6.5-4.3c0.6-5.1,2-10.1,3.9-14.9
	c0.6-1.5,1.8-2.6,3.5-1.7c1.8,1,0.9,2.1,0.1,3.5c-2,3.4-3.1,7.2-3.1,11.1c0,2.1,0.8,2.6,2.6,1.5c3.5-2,5.7-5.1,7.3-8.6
	c1.2-2.5,2.1-5.1,2.7-7.7c0.3-1.2,0.9-2.2,2.4-1.9c1.4,0.4,1.6,1.5,1.3,2.8c-0.8,3.3-2.5,6.3-3.6,9.5c-1,3-2.5,6-1.5,9.4
	c0.4,1.1-0.5,1.7-1.5,1.8c-1.1,0.2-2-0.3-2.3-1.4C206.1,286.1,206.2,285.2,206.2,283.9z"/>
<path class="st0" d="M332.3,282.6c-1.6,1.2-2.8,2.2-4,3c-1.5,1-3.3,1.5-5,0.6s-1.9-2.7-1.7-4.4c0.4-5.9,3.2-11.1,5.4-16.5
	c0.4-1.1,1.6-1.6,2.7-1.2c1.3,0.5,1.6,1.7,1.1,2.9c-0.7,1.5-1.4,3-2.2,4.4c-1.2,2.2-2.4,4.4-3.1,6.8c-0.3,1.2-1.2,2.7-0.1,3.5
	c1.2,1,2.5-0.3,3.6-0.9c2.7-1.6,4.7-3.9,6.3-6.6c1.3-2.2,2.5-4.5,3.3-7c0.2-0.5,0.4-1.1,0.6-1.6c0.6-1.5,1.7-1.8,3-1.2
	c1.4,0.6,1.3,1.8,0.7,2.9c-1.9,3.7-4.3,7.1-5.6,11.1c-0.7,1.9-1.2,3.8-1.1,5.8c0.1,1.6-0.1,3.2-2.2,3.2c-2.2,0-1.7-1.8-1.8-3.2
	C332.3,284,332.3,283.5,332.3,282.6z"/>
<path class="st0" d="M274.4,268.5c-8.3,1.8-12.4,7-11.9,14.9c0,0.7,0.1,1.4,0,2c-0.3,1.3-1.1,2.3-2.6,2.1c-1.7-0.2-2-1.5-1.7-2.8
	c0.6-2.5,1.5-4.9,2.1-7.4c0.9-4.1,2.5-7.9,4.1-11.7c0.6-1.3,1.4-2.4,3.1-1.6c1.8,1,0.6,2.2,0,3.5c2.5-0.5,4.6-1.6,6.9-2.3
	c1.1-0.4,2.3-0.8,3.3,0.1c1.1,1,0.5,2.2,0.2,3.3c-1,3.2-2,6.3-2.9,9.5c-0.7,2.5-1.5,4.9-0.9,7.6c0.3,1.3-0.3,2.3-1.7,2.5
	c-1.4,0.2-2.4-0.3-2.6-1.9c-0.3-2,0.2-3.8,0.8-5.6C271.7,276.7,273,272.8,274.4,268.5z"/>
<path class="st0" d="M373.3,264.8c4.4-0.7,8.4,0.3,12.6,0.7c-1.9,1.2-4.2,1-6.2,1.5c-1.4,0.3-2.8,0.6-4.2,0.4c-3-0.3-4.3,1.1-5,3.8
	c-0.8,3.1-1.9,6.2-2.8,9.3c-0.3,1.1-0.6,2.2-0.2,3.5c2.9-1.3,5-3.5,7.1-5.5c0.6-0.5,1.2-1.6,2-0.9c0.9,0.7,0.2,1.7-0.4,2.4
	c-2.2,2.3-4,5.2-7,6.7c-1.2,0.6-2.4,1.2-3.7,0.2c-1.5-1.1-1.8-2.6-1.5-4.2c0.8-3.8,1.9-7.6,3.2-11.3c0.2-0.6,0.5-1.2,0.7-1.9
	c0.3-0.8,0.3-1.5-0.9-1.4c-1.7,0.1-1.9-1.1-1.9-2.3c0-1.5,1.3-1.3,2.2-1.2c1.9,0.3,2.4-0.6,2.7-2.3c0.2-1.3,0.5-2.6,0.9-3.9
	c0.6-1.5,1.8-2.2,3.4-1.6c1.7,0.6,1.3,1.9,0.9,3.1C374.5,261.5,373.9,262.9,373.3,264.8z"/>
<path class="st0" d="M134,292.7c-3.5,0.2-5.7-1.5-7.6-3.9c-0.8-1-0.9-2.1-0.5-3.3c0.3-0.8,1.1-1,1.9-1c1.4,0.1,1.8,1,2.2,2.3
	c0.6,2,3.2,2.8,5.7,2.1c2-0.6,3.6-2.9,3.2-4.8c-0.2-1.1-1-1.5-1.8-1.9c-1.8-1-3.8-1.8-5.5-2.8c-2.2-1.4-2.5-3-0.8-5
	c3.4-3.9,7.8-5.5,12.8-5.5c0.9,0,1.7,0.3,1.8,1.3c0.1,1.2-0.6,1.6-1.6,1.8c-2.8,0.6-5.7,1-8.1,2.8c-2.3,1.7-2.3,1.8,0.1,3.2
	c1.4,0.8,2.8,1.5,4,2.5c4.4,3.3,3.9,8.5-0.9,11C137.2,292.4,135.5,292.7,134,292.7z"/>
<path class="st0" d="M220.7,282.2c0.4-5.6,3.1-10.7,7.9-14.8c2.8-2.4,6.1-2.8,9.6-1.5c0.9,0.3,1.8,0.8,1.5,1.9
	c-0.3,1.2-1.4,1-2.3,0.8c-2.8-0.8-5.1,0.2-7.1,2c-3.1,2.8-4.9,6.5-5.6,10.6c-0.4,2.5,0.8,3.3,3.3,2.4s4.4-2.6,6.3-4.4
	c0.5-0.4,1-1.2,1.7-0.8c0.8,0.5,0.5,1.3,0.3,2c-1.1,3.8-7.9,8.3-11.8,7.9C221.8,288.3,220.6,286.7,220.7,282.2z"/>
<path class="st0" d="M292.1,289c-4.9-0.2-7-2.4-6.2-6.2c1.2-6.2,4.3-11.5,9.5-15.3c3.3-2.3,6.9-1.9,9,0.7c0.6,0.8,1.3,1.7,0.4,2.7
	c-1.1,1.2-1.8,0.1-2.4-0.6c-1.5-1.5-3.1-1.1-4.5-0.1c-4.5,3.2-7.3,7.7-8.4,13.1c-0.4,1.8,0.7,2.6,2.5,2.4c1.7-0.2,3.1-1.1,4.4-2.1
	c0.9-0.7,2.2-1.5,3.1-0.3c0.9,1.3-0.4,2.1-1.3,2.8C296.1,287.7,293.9,289.1,292.1,289z"/>
<path class="st0" d="M125,271.1c1.7-1.2,3.3-2.4,5-3.5c1.6-1,3.2-0.9,4.3,0.8c0.4,0.6,0.6,1.2,0.1,1.9c-0.4,0.6-1,0.9-1.7,0.4
	c-0.9-0.5-1.6,0-2.3,0.5c-2.5,1.7-4.2,4.1-6.3,6.3c-3.3,3.5-3.4,7.6-3.4,11.8c0,1.3-0.3,2.3-1.9,2.2c-1.7-0.1-2.1-1.2-1.9-2.6
	c1-6.1,2.1-12.1,3.6-18.1c0-0.2,0.1-0.3,0.1-0.5c0.6-1.6,1.6-3,3.4-2.7C126.2,268.1,124.3,269.9,125,271.1z"/>
<path class="st0" d="M430.2,281.7c0.4-3,1.6-5.7,2.9-8.4c2.6-5.8,5.5-11.5,9-16.9c0.7-1.1,1.5-2,2.8-2.3c0.9-0.2,1.7,0.2,2.1,0.9
	c0.5,0.8,0.5,1.7-0.4,2.2c-4.8,3.2-6.3,8.6-8.9,13.3c-1.9,3.6-3.4,7.4-5,11.1c-0.1,0.2-0.2,0.5-0.3,0.7c-0.4,0.7-0.7,1.7-1.7,1.4
	C429.8,283.5,430.3,282.5,430.2,281.7z"/>
<path class="st0" d="M430.5,285.6c1.4,0.4,3.5,0.3,3.5,2.6c0,2.2-1.9,2.4-3.5,2.3s-3.7-0.2-3.7-2.5
	C426.9,285.9,428.6,285.5,430.5,285.6z"/>
<path class="st1" d="M396.8,119.5c-0.5,0-1.1,0-1.7,0c0.5-0.7,1-0.9,1.7-0.9C396.8,119,396.8,119.3,396.8,119.5z"/>
<path class="st2" d="M425.2,154.8c0-6.1-1.2-11.7-3.9-17.1c-5.1-10.1-12.9-16.7-24.5-18.2c-1.3-0.2-0.4-0.5,0-1.2
	c1.9-0.7,3.8-1.3,5.6-2.1c14.1-6.3,22.1-17.2,22.4-32.6c0.5-20.9,0.1-41.8,0.2-62.7c0-2-0.6-2.3-2.4-2.3c-18.4,0.1-36.8,0.1-55.2,0
	c-2,0-2.5,0.5-2.5,2.5c0.1,11.5-0.1,23,0.1,34.5c0.1,7.6-2.6,14-7.8,19.3c-5,5.2-10.7,8.6-18.3,8.1c-7-0.4-14.1-0.1-21.2,0
	c-2.2,0-2.8-0.4-2.8-2.7c0.1-19.7,0-39.5,0.1-59.2c0-1.7-0.3-2.4-2.3-2.4c-20.8,0.1-41.7,0.1-62.5,0c-1.9,0-2.4,0.4-2.4,2.3
	c0.1,10.8,0,21.7,0,32.5c0,0.8,0,1.5,0,2.3c-0.6-0.6-0.8-1.2-1-1.8c-5.6-15.6-15.7-26.9-31-33.6c-13.7-6-28.2-8.1-42.9-9.3
	c-15.4-1.2-30.9-1.3-46.4-0.5c-13.5,0.7-26.9,2.1-39.9,5.9c-19.9,5.8-33.6,18.1-40.3,38c-4.4,13.2-6.1,26.8-6.8,40.5
	c-0.9,18.1-1,36.1-0.1,54.2c0.6,13.4,2.2,26.7,6.5,39.5c5.5,16.4,15.9,28.3,32.1,34.7c10.1,4,20.7,5.9,31.5,7
	c17.2,1.8,34.5,1.9,51.7,1.4c14.7-0.5,29.3-1.6,43.5-5.4c17.4-4.7,31.4-13.7,39.2-30.5c1.4-3,2.5-6,4-9.6c0,12.5,0,24.3-0.1,36.1
	c-0.1,2.4,0.3,3.2,3,3.2c20.4-0.1,40.8-0.1,61.2,0c2.2,0,2.9-0.5,2.9-2.8c-0.1-20,0-40.1-0.1-60.2c0-2.1,0.4-2.8,2.7-2.8
	c9.4,0.2,18.8,0.4,28.2,0c10.8-0.4,21.6,11.1,21.4,21.5c-0.3,13.9,0,27.8-0.1,41.7c0,2,0.4,2.6,2.6,2.6c17.7-0.1,35.3-0.1,53,0
	c2.1,0,2.6-0.5,2.6-2.6C425.1,200.3,425.1,177.5,425.2,154.8z M189.4,145.7c-2.8,13.8-10.6,22.6-24.6,25.6
	c-11.6,2.4-23.3,2.4-35,0.1c-13.4-2.7-21.4-11-24-24.2c-3.4-17.2-3.5-34.6,0-51.8c3.2-15.5,13.1-23.8,28.8-25.7
	c10.8-1.3,21.4-1.3,32,1.5c13,3.5,19.9,12.4,22.6,25.2c1.9,8.1,1.7,16.5,1.7,24.9C190.9,129.5,191,137.6,189.4,145.7z"/>
<path class="st0" d="M55.4,266.2c-0.3-7.2-5.5-11.3-12.6-10.4c-8,1.1-14,5.5-19.1,11.3c-4,4.7-6.9,10-6.9,16.4c0,0.7-0.1,1.4,0,2
	c0.4,7.5,5.7,11.5,12.9,9.9c4.4-1,8.6-2.6,12.4-5.1C50.7,284.6,55.9,276.9,55.4,266.2z M43.4,284.2c-4.5,3.8-9.5,6.5-15.7,4.9
	c-0.2,1.2,0.8,1.4,0.8,2.2c-0.1,0.1-0.3,0.2-0.3,0.2c-0.6-0.4-1.3-0.3-1.9-0.4c-2.9-0.6-4.6-2.6-4.6-5.6
	c-0.1-10.1,9.1-22.9,18.9-25.6c5.5-1.5,9.8-0.8,10.6,6.6C52,273.8,48.8,279.6,43.4,284.2z"/>
<path class="st0" d="M259.1,264c-0.6-0.3-1.6-0.5-1.8,0.1c-0.9,2.1-2.4,1.2-3.8,1c-0.8,0-1.7,0-2.5,0.2c-8,1.6-14.2,9.3-14.1,17.4
	c0.1,4.1,2.8,5.8,6.6,4c2.5-1.2,4.4-3.2,6.7-5.4c0,1.5,0,2.5-0.1,3.5c0,1,0.7,1.7,1.6,2c0.9,0.3,1.8,0.1,2.5-0.6s0.5-1.5,0.1-2.3
	c-0.7-1.2-0.5-2.3-0.2-3.6c1-3.8,2.8-7.3,4.3-10.9c0.5-1.2,1-2.3,1.4-3.5C260.1,265.1,259.9,264.5,259.1,264z M253.8,271.1
	c-1.2,0.2-1.3,1.1-1.8,1.9c-2.2,3.9-5.1,7.3-8.7,10.1c-0.6,0.5-1.3,1.2-2.2,0.7c-1-0.6-0.7-1.6-0.5-2.5c1.4-7.3,5.4-11.5,11.7-12.4
	c0.3-0.1,0.6-0.1,0.9-0.2c0.6,0.1,1.5-0.2,1.5,0.6C254.7,269.9,254.6,271,253.8,271.1z"/>
<path class="st0" d="M112.2,284.5c-2.7,2.2-5.8,3.1-9.2,3.2c-1.5,0-2.4-0.6-2.6-2.1c-0.3-1.4,0.2-2.1,1.6-2.6c3.5-1.2,6.8-3,10-4.9
	c1.3-0.8,2.4-1.8,3.1-3.2c1.2-2.3,0.1-4.8-2.3-5.6c-1.4-0.5-2.8-0.4-4.2,0c-6.3,1.8-11.2,8.4-11.4,15.4c-0.1,4,1.9,6.8,5.5,7.3
	c4.9,0.5,8.6-2.1,12.1-5c0.9-0.8,0.8-2.3-0.1-3.2C113.7,282.8,112.9,283.9,112.2,284.5z M110.2,272.5c0.6-0.2,1.3-0.6,1.8,0.1
	c0.4,0.7-0.2,1.3-0.6,1.7c-2.3,2.5-5.2,4-8.8,5C104.3,275.7,106.9,273.7,110.2,272.5z"/>
<path class="st0" d="M407.1,269c-0.3-2.2-0.8-4.9-3.2-5.6c-3-0.8-6.3-0.7-9,1.4c-4.7,3.8-7.1,8.9-7.7,13.8c0.1,5.8,4,8.6,9,7.3
	C404.4,283.8,407.8,275.7,407.1,269z M403.3,271.5c0,4.9-2.9,9.1-7,10.7c-1.4,0.5-3,0.9-4.3-0.1c-1.4-1.1-1.5-2.8-1.2-4.3
	c0.8-4.4,3.2-7.8,6.6-10.5c1.1-0.9,2-0.9,3,0.3C401.5,268.9,404.5,269.1,403.3,271.5z"/>
<path class="st0" d="M191.8,266.8c-3.1-1.2-6.5-1.8-9.5,0.7c-4.5,3.8-7.1,8.5-7.4,14.4c-0.3,5.2,3.4,8.1,8.4,6.8
	c6.4-1.6,10.8-8,11-15.8C194.4,270.5,194.3,267.8,191.8,266.8z M191,273.5c-0.5,5.5-3.7,10-8.1,11.2c-3,0.9-4.8-0.5-4.7-4.4
	c0.6-4.1,3.1-7.7,7-10.6c2-1.5,3.3,0.8,5.1,0.7C191.2,270.4,191.1,272.3,191,273.5z"/>
<path class="st0" d="M321.4,271.1c-0.9-3.5-4.5-6-8-4.8c-5.4,1.9-11.6,10.3-11.8,16c-0.1,3.9,2.8,6.1,7.4,5.5
	C315.4,287,323,277.2,321.4,271.1z M308.7,284.2c-0.4-0.1-0.8-0.1-1.1,0c-1.5,0.1-2.3-0.3-2.4-2c-0.2-3.8,5.2-11.4,8.9-12.4
	c2.1-0.6,4.3,0.7,4.2,2.7C318,277.2,313.8,283.2,308.7,284.2z"/>
</svg>
