<svg width="512" height="452" viewBox="0 0 512 452" fill="none" xmlns="http://www.w3.org/2000/svg">
<path d="M499.213 247.213C510.929 235.497 510.929 216.503 499.213 204.787L308.294 13.868C296.579 2.15224 277.584 2.15224 265.868 13.868C254.152 25.5837 254.152 44.5786 265.868 56.2944L435.574 226L265.868 395.706C254.152 407.421 254.152 426.416 265.868 438.132C277.584 449.848 296.579 449.848 308.294 438.132L499.213 247.213ZM33 256L478 256V196L33 196L33 256Z" fill="black"/>
<path d="M497.445 245.445C508.185 234.706 508.185 217.294 497.445 206.555L322.437 31.5456C311.697 20.8062 294.285 20.8062 283.546 31.5456C272.806 42.2851 272.806 59.6971 283.546 70.4365L439.109 226L283.546 381.563C272.806 392.303 272.806 409.715 283.546 420.454C294.285 431.194 311.697 431.194 322.437 420.454L497.445 245.445ZM83 253.5L478 253.5V198.5L83 198.5V253.5Z" fill="#CA2222"/>
<path d="M33.0001 196C16.4316 196 3.00012 209.431 3.00012 226C3.00012 242.569 16.4316 256 33.0001 256V196ZM152.467 196H33.0001V256H152.467V196Z" fill="black"/>
<path d="M33.0001 198.5C17.8123 198.5 5.50012 210.812 5.50012 226C5.50012 241.188 17.8123 253.5 33.0001 253.5V198.5ZM152.467 198.5H33.0001V253.5H152.467V198.5Z" fill="#CA2222"/>
<path d="M267.997 398.083C257.321 408.885 257.424 426.297 268.226 436.973C279.029 447.649 296.44 447.546 307.116 436.744L267.997 398.083ZM351.974 313.111L267.997 398.083L307.116 436.744L391.093 351.772L351.974 313.111Z" fill="#CA2222"/>
<path d="M307.784 16.3524C297.082 5.5756 279.67 5.5148 268.894 16.2167C258.117 26.9185 258.056 44.3304 268.758 55.1073L307.784 16.3524ZM391.964 101.123L307.784 16.3524L268.758 55.1073L352.938 139.877L391.964 101.123Z" fill="#CA2222"/>
<rect x="0.5" y="0.5" width="511" height="450.765" stroke="black"/>
</svg>
